# xmcd CD database file
#
# Track frame offsets:
#	150
#	99270
#	123923
#	129468
#	139302
#	166908
#	189189
#
# Disc length: 2907 seconds
#
# Revision: 2
# Processed by: cddbd v1.5.2PL0 Copyright (c) Steve Scherf et al.
# Submitted via: CDex 1.51
#
DISCID=540b5907
DTITLE=Bob Downes - Open Music
DYEAR=1970
DGENRE=Jazz
TTITLE0=Dream Journey: A Score For Blind Sight By The Ballet Rambert
TTITLE1=Birth Of A Forest
TTITLE2=Integration
TTITLE3=Contact
TTITLE4=Ghosts In Space
TTITLE5=Desert Haze
TTITLE6=Electric City
EXTD=YEAR: 1970
EXTT0=
EXTT1=
EXTT2=
EXTT3=
EXTT4=
EXTT5=
EXTT6=
PLAYORDER=
